<?xml version="1.0" standalone="no"?>
<!DOCTYPE svg PUBLIC "-//W3C//DTD SVG 20010904//EN"
 "http://www.w3.org/TR/2001/REC-SVG-20010904/DTD/svg10.dtd">
<svg version="1.0" xmlns="http://www.w3.org/2000/svg"
 width="562.000000pt" height="562.000000pt" viewBox="0 0 562.000000 562.000000"
 preserveAspectRatio="xMidYMid meet">
<metadata>
Created by potrace 1.11, written by Peter Selinger 2001-2013
</metadata>
<g transform="translate(0.000000,562.000000) scale(0.100000,-0.100000)"
fill="#000000" stroke="none">
<path d="M2825 5135 c-55 -21 -110 -67 -141 -121 -32 -54 -43 -152 -24 -210
17 -52 61 -114 98 -138 l29 -19 0 -251 c0 -239 1 -253 22 -294 54 -105 172
-109 220 -8 20 43 21 62 21 297 l0 251 43 38 c145 128 113 363 -61 446 -49 23
-156 28 -207 9z"/>
<path d="M1557 4759 c-27 -16 -43 -66 -66 -210 -21 -136 -74 -535 -86 -643 -3
-32 -7 -62 -10 -65 -2 -4 -18 -8 -37 -9 -68 -5 -145 -25 -213 -56 -121 -57
-260 -203 -301 -319 -40 -110 -42 -165 -43 -1019 l0 -826 2117 0 2117 0 -2
837 c-1 460 -4 850 -6 866 -23 149 -71 242 -179 346 -32 31 -76 69 -98 84 -50
35 -156 73 -223 81 -76 9 -76 9 -84 17 -8 8 -7 3 -22 142 -13 109 -14 116 -36
285 -8 63 -17 124 -19 135 -2 11 -7 45 -11 75 -10 84 -33 202 -43 231 -16 40
-40 59 -76 59 -60 0 -93 -39 -231 -278 -71 -124 -155 -268 -186 -321 -31 -53
-88 -150 -127 -216 l-70 -120 -701 0 c-444 0 -704 4 -710 10 -5 6 -120 201
-256 435 -162 280 -259 436 -282 458 -38 33 -81 41 -116 21z"/>
<path d="M1580 1399 c-111 -23 -131 -202 -29 -255 24 -12 217 -14 1364 -14
1482 0 1386 -4 1419 65 35 73 9 172 -52 197 -29 12 -2643 19 -2702 7z"/>
<path d="M2025 929 c-56 -7 -80 -23 -99 -63 -37 -78 -7 -174 62 -197 23 -8
308 -11 937 -11 980 0 937 -2 979 55 27 36 28 122 3 160 -42 64 20 60 -955 61
-488 1 -905 -1 -927 -5z"/>
</g>
</svg>
