<?xml version="1.0" encoding="UTF-8" standalone="no"?>
<!-- Generator: Adobe Illustrator 14.0.0, SVG Export Plug-In . SVG Version: 6.00 Build 43363)  -->

<svg
   xmlns:dc="http://purl.org/dc/elements/1.1/"
   xmlns:cc="http://creativecommons.org/ns#"
   xmlns:rdf="http://www.w3.org/1999/02/22-rdf-syntax-ns#"
   xmlns:svg="http://www.w3.org/2000/svg"
   xmlns="http://www.w3.org/2000/svg"
   xmlns:sodipodi="http://sodipodi.sourceforge.net/DTD/sodipodi-0.dtd"
   xmlns:inkscape="http://www.inkscape.org/namespaces/inkscape"
   version="1.1"
   x="0px"
   y="0px"
   width="558px"
   height="562px"
   viewBox="0 0 558 562"
   enable-background="new 0 0 558 562"
   xml:space="preserve"
   id="svg2"
   inkscape:version="0.91 r13725"
   sodipodi:docname="catbot.svg"
   inkscape:export-filename="/Users/jloi/code/yldSite/themes/cactus-dark/source/images/catbot.png"
   inkscape:export-xdpi="72"
   inkscape:export-ydpi="72"><metadata
     id="metadata36"><rdf:RDF><cc:Work
         rdf:about=""><dc:format>image/svg+xml</dc:format><dc:type
           rdf:resource="http://purl.org/dc/dcmitype/StillImage" /></cc:Work></rdf:RDF></metadata><defs
     id="defs34" /><sodipodi:namedview
     pagecolor="#ffffff"
     bordercolor="#666666"
     borderopacity="1"
     objecttolerance="10"
     gridtolerance="10"
     guidetolerance="10"
     inkscape:pageopacity="0"
     inkscape:pageshadow="2"
     inkscape:window-width="1305"
     inkscape:window-height="892"
     id="namedview32"
     showgrid="false"
     inkscape:zoom="0.83985765"
     inkscape:cx="279.00656"
     inkscape:cy="285.00612"
     inkscape:window-x="20"
     inkscape:window-y="43"
     inkscape:window-maximized="0"
     inkscape:current-layer="Layer_2" /><g
     id="Layer_1"><rect
       x="-690.5"
       y="-114.5"
       fill="none"
       width="2384"
       height="1684"
       id="rect5" /></g><g
     id="Layer_2"><g
       id="g8"
       inkscape:export-xdpi="72.1875"
       inkscape:export-ydpi="72.1875"><path
         fill="#231F20"
         d="M316.783,73.824c0-14.904-12.083-26.986-26.988-26.986c-14.904,0-26.985,12.082-26.985,26.986    c0,10.141,5.6,18.964,13.871,23.576v49.1c0,0,2.903,13.561,13.89,13.561c10.985,0,12.343-13.9,12.343-13.9V97.4    C311.183,92.788,316.783,83.965,316.783,73.824z"
         id="path10" /><path
         fill="#231F20"
         d="M476.354,189.891c-12.09-10.066-29.551-11.346-34.547-11.501c-3.072-29.767-9.148-72.933-11.387-83.755    c-3.051-14.747-15.254-11.697-21.355,0c-0.115,0.219-48.723,83.719-48.723,83.719s-1.986,0.01-1.99,0.014H219.293l-48.766-83.732    c-6.102-11.697-18.305-14.747-21.356,0c-2.238,10.822-8.313,53.988-11.387,83.755c-4.996,0.155-22.458,1.435-34.546,11.501    c-20.263,16.871-25.146,28.836-25.146,59.664c0,30.826,0,151.19,0,151.19H501.5c0,0,0-120.364,0-151.19    C501.5,218.727,496.615,206.762,476.354,189.891z"
         id="path12" /><g
         id="g14"><g
           id="g16"><ellipse
             fill="#FFFFFF"
             cx="185.274"
             cy="265.373"
             rx="51.527"
             ry="32.881"
             id="ellipse18" /><ellipse
             fill="#231F20"
             cx="185.275"
             cy="265.373"
             rx="16.271"
             ry="32.881"
             id="ellipse20" /></g><g
           id="g22"><ellipse
             fill="#FFFFFF"
             cx="394.317"
             cy="265.373"
             rx="51.526"
             ry="32.881"
             id="ellipse24" /><ellipse
             fill="#231F20"
             cx="394.317"
             cy="265.373"
             rx="16.272"
             ry="32.881"
             id="ellipse26" /></g></g><path
         fill="#231F20"
         d="M420.988,421.592H158.605c0,0-12.204,0-12.204,13.73c0,13.729,12.204,13.729,12.204,13.729h262.383    c0,0,12.203,0,12.203-13.729C433.191,421.592,420.988,421.592,420.988,421.592z"
         id="path28" /><path
         fill="#231F20"
         d="M378.555,468.654H201.036c0,0-12.203,0-12.203,13.729c0,13.73,12.203,13.73,12.203,13.73h177.519    c0,0,12.203,0,12.203-13.73C390.758,468.654,378.555,468.654,378.555,468.654z"
         id="path30" /></g></g></svg>